<?xml version="1.0" encoding="UTF-8" standalone="no"?>
<!DOCTYPE svg PUBLIC "-//W3C//DTD SVG 1.1//EN" "http://www.w3.org/Graphics/SVG/1.1/DTD/svg11.dtd">
<svg width="100%" height="100%" viewBox="0 0 308 67" version="1.1" xmlns="http://www.w3.org/2000/svg" xmlns:xlink="http://www.w3.org/1999/xlink" xml:space="preserve" xmlns:serif="http://www.serif.com/" style="fill-rule:evenodd;clip-rule:evenodd;stroke-linejoin:round;stroke-miterlimit:2;">
    <g transform="matrix(1,0,0,1,-825.575,-3435.77)">
        <g transform="matrix(1.55999,-3.33395e-32,-8.15416e-32,1.55999,-245.892,2469.89)">
            <path d="M874.197,657.632C874.149,660.447 876.531,661.694 879.06,661.694C882.18,661.694 883.81,660.127 883.81,658.032C883.81,655.455 881.269,654.895 880.42,654.703C877.555,653.982 877.011,653.854 877.011,652.974C877.011,652.014 877.939,651.678 878.74,651.678C879.956,651.678 880.917,652.046 880.997,653.406L883.427,653.406C883.427,650.767 881.236,649.728 878.852,649.728C876.787,649.728 874.581,650.831 874.581,653.182C874.581,655.295 876.291,656.015 877.987,656.431C879.652,656.896 881.381,657.072 881.381,658.32C881.381,659.488 880.036,659.744 879.156,659.744C877.811,659.744 876.627,659.152 876.627,657.632L874.197,657.632ZM853.973,655.759C853.973,659.056 856.068,661.694 859.588,661.694C863.109,661.694 865.203,659.056 865.203,655.759C865.203,652.366 863.109,649.728 859.588,649.728C856.068,649.728 853.973,652.366 853.973,655.759ZM725.434,657.632C725.386,660.447 727.768,661.694 730.297,661.694C733.417,661.694 735.047,660.127 735.047,658.032C735.047,655.455 732.505,654.895 731.657,654.703C728.792,653.982 728.248,653.854 728.248,652.974C728.248,652.014 729.176,651.678 729.976,651.678C731.193,651.678 732.153,652.046 732.233,653.406L734.663,653.406C734.663,650.767 732.473,649.728 730.088,649.728C728.024,649.728 725.818,650.831 725.818,653.182C725.818,655.295 727.528,656.015 729.224,656.431C730.889,656.896 732.617,657.072 732.617,658.32C732.617,659.488 731.273,659.744 730.393,659.744C729.048,659.744 727.864,659.152 727.864,657.632L725.434,657.632ZM697.385,653.838C697.081,651.199 694.953,649.728 692.457,649.728C688.937,649.728 686.843,652.366 686.843,655.759C686.843,659.056 688.937,661.694 692.457,661.694C695.273,661.694 697.225,659.888 697.481,657.024L695.049,657.024C694.857,658.544 693.993,659.584 692.457,659.584C690.201,659.584 689.353,657.664 689.353,655.759C689.353,653.758 690.201,651.838 692.457,651.838C693.689,651.838 694.777,652.702 694.953,653.838L697.385,653.838ZM705.977,661.422L708.521,661.422L709.417,658.878L713.689,658.878L714.553,661.422L717.161,661.422L712.889,650L710.313,650L705.977,661.422ZM747.065,661.422L749.575,661.422L749.575,652.11L752.999,652.11L752.999,650L743.641,650L743.641,652.11L747.065,652.11L747.065,661.422ZM834.614,661.422L836.964,661.422L836.964,653.774L836.996,653.774L841.75,661.422L844.26,661.422L844.26,650L841.91,650L841.91,657.664L841.878,657.664L837.108,650L834.614,650L834.614,661.422ZM814.438,661.422L816.982,661.422L817.878,658.878L822.15,658.878L823.014,661.422L825.621,661.422L821.35,650L818.774,650L814.438,661.422ZM780.68,661.422L788.758,661.422L788.758,659.312L783.19,659.312L783.19,650L780.68,650L780.68,661.422ZM798.167,661.422L806.245,661.422L806.245,659.312L800.677,659.312L800.677,650L798.167,650L798.167,661.422ZM762.313,661.422L770.982,661.422L770.982,659.312L764.822,659.312L764.822,656.51L770.358,656.51L770.358,654.56L764.822,654.56L764.822,652.11L770.854,652.11L770.854,650L762.313,650L762.313,661.422ZM856.483,655.759C856.483,653.758 857.332,651.838 859.588,651.838C861.845,651.838 862.693,653.758 862.693,655.759C862.693,657.663 861.845,659.584 859.588,659.584C857.332,659.584 856.483,657.663 856.483,655.759ZM711.561,652.816L711.593,652.816L713.033,657.008L710.073,657.008L711.561,652.816ZM820.022,652.816L820.054,652.816L821.494,657.008L818.534,657.008L820.022,652.816ZM767.005,619.682L760.272,619.682L760.272,633.762C760.272,634.741 760.363,636.853 758.649,636.853C756.843,636.853 756.843,635.292 756.843,633.609L756.843,632.354L750.787,632.354L750.787,634.191C750.787,638.964 753.264,642.053 758.802,642.053C764.312,642.053 767.005,639.698 767.005,633.67L767.005,619.682ZM861.65,630.607C861.65,637.282 866.088,642.053 872.73,642.053C879.372,642.053 883.81,637.282 883.81,630.607C883.81,623.933 879.372,619.162 872.73,619.162C866.088,619.162 861.65,623.933 861.65,630.607ZM686.843,641.533L693.608,641.533L694.587,638.411L701.535,638.411L702.453,641.533L709.432,641.533L701.474,619.682L694.893,619.682L686.843,641.533ZM792.596,641.533L798.963,641.533L798.963,629.597L799.024,629.597L805.727,641.533L812.278,641.533L812.278,619.682L805.911,619.682L805.911,631.372L805.85,631.372L799.483,619.682L792.596,619.682L792.596,641.533ZM839.611,641.533L846.345,641.533L846.345,633.911L849.927,633.911C852.59,633.911 852.804,636.084 852.957,638.166C853.049,639.298 853.171,640.431 853.508,641.533L860.242,641.533C859.599,640.584 859.599,637.89 859.507,636.85C859.262,634.125 858.13,632.107 856.293,631.403C858.528,630.578 859.568,628.19 859.568,625.923C859.568,621.792 856.232,619.682 852.436,619.682L839.611,619.682L839.611,641.533ZM768.477,641.533L775.241,641.533L776.221,638.411L783.169,638.411L784.087,641.533L791.066,641.533L783.108,619.682L776.527,619.682L768.477,641.533ZM710.932,641.533L727.338,641.533L727.338,635.935L717.666,635.935L717.666,619.682L710.932,619.682L710.932,641.533ZM730.216,641.533L748.642,641.533L748.642,635.935L736.95,635.935L736.95,633.207L747.265,633.207L747.265,628.008L736.95,628.008L736.95,625.28L748.305,625.28L748.305,619.682L730.216,619.682L730.216,641.533ZM815.798,641.533L825.531,641.533C833.153,641.533 836.704,637.312 836.704,630.577C836.704,625.065 834.102,619.682 826.848,619.682L815.798,619.682L815.798,641.533ZM868.384,630.607C868.384,625.739 871.016,624.606 872.73,624.606C874.444,624.606 877.077,625.739 877.077,630.607C877.077,635.476 874.444,636.609 872.73,636.609C871.016,636.609 868.384,635.476 868.384,630.607ZM822.532,625.28L824.674,625.28C829.572,625.28 829.97,629.107 829.97,630.485C829.97,632.536 829.327,635.935 825.164,635.935L822.532,635.935L822.532,625.28ZM696.056,633.731L698.168,626.997L698.229,626.997L700.188,633.731L696.056,633.731ZM777.69,633.731L779.802,626.997L779.863,626.997L781.822,633.731L777.69,633.731ZM846.345,624.882L849.498,624.882C852.069,624.882 852.834,625.678 852.834,627.057C852.834,629.017 851.12,629.232 849.865,629.232L846.345,629.232L846.345,624.882Z" style="fill:white;fill-rule:nonzero;"/>
        </g>
    </g>
</svg>
