<?xml version="1.0" encoding="UTF-8" standalone="no"?>
<!DOCTYPE svg PUBLIC "-//W3C//DTD SVG 1.1//EN" "http://www.w3.org/Graphics/SVG/1.1/DTD/svg11.dtd">
<svg width="100%" height="100%" viewBox="0 0 639 94" version="1.1" xmlns="http://www.w3.org/2000/svg" xmlns:xlink="http://www.w3.org/1999/xlink" xml:space="preserve" xmlns:serif="http://www.serif.com/" style="fill-rule:evenodd;clip-rule:evenodd;stroke-linejoin:round;stroke-miterlimit:2;">
    <g transform="matrix(1,0,0,1,-1325.82,-3405.07)">
        <g>
            <g transform="matrix(1,0,0,1,-2730.17,4742.12)">
                <g>
                    <g transform="matrix(1,0,0,1,4116.1,-1274.57)">
                        <path d="M0,-31.464C-1.368,-32.767 -3.107,-34.756 -5.167,-36.327C-14.913,-43.764 -29.798,-40.756 -34.023,-27.176C-36.741,-18.442 -37.02,-9.718 -32.638,-1.418C-26.796,9.648 -12.282,11.862 -3.213,3.216C-1.756,1.827 -0.439,0.29 1.066,-1.312C2.55,0.26 4.241,1.954 5.792,3.768C6.167,4.208 6.185,5.043 6.188,5.698C6.219,10.865 6.142,16.034 6.244,21.2C6.274,22.726 5.707,23.599 4.488,24.363C-0.04,27.201 -4.959,29.12 -10.191,29.94C-20.466,31.548 -30.278,29.993 -39.343,24.701C-50.362,18.268 -56.604,8.325 -58.986,-3.878C-61.743,-18.004 -59.518,-31.525 -51.497,-43.671C-44.108,-54.861 -33.639,-61.172 -20.128,-62.291C-11.429,-63.012 -3.202,-61.745 4.455,-57.349C5.767,-56.596 6.257,-55.747 6.232,-54.248C6.149,-49.082 6.287,-43.911 6.138,-38.748C6.104,-37.599 5.495,-36.24 4.706,-35.391C3.354,-33.936 1.651,-32.808 0,-31.464" style="fill:white;fill-rule:nonzero;"/>
                    </g>
                    <g transform="matrix(1,0,0,1,4235.53,-1304.96)">
                        <path d="M0,29.277C4.666,33.341 9.463,37.567 14.323,41.718C15.554,42.77 15.535,43.492 14.483,44.728C6.962,53.57 -2.45,58.951 -13.992,60.435C-27.533,62.176 -39.197,58.226 -48.793,48.502C-53.603,43.628 -56.535,37.618 -58.62,31.23C-58.451,31.016 -58.386,30.839 -58.284,30.815C-54.125,29.839 -54.067,29.764 -54.069,25.472C-54.071,19.616 -54.066,13.759 -54.067,7.902C-54.067,3.879 -54.069,3.879 -58.063,3.414L-58.063,-5.242C-57.884,-5.256 -57.704,-5.269 -57.524,-5.282C-57.456,-4.963 -57.387,-4.644 -57.327,-4.369C-54.915,-4.111 -53.479,-5.368 -52.358,-7.393C-49.535,-12.492 -46.751,-17.623 -43.628,-22.536C-42.508,-24.299 -40.647,-25.794 -38.806,-26.86C-30.676,-31.561 -21.906,-32.899 -12.611,-31.619C-4.103,-30.448 3.209,-26.856 9.551,-21.23C11.584,-19.427 13.238,-17.196 15.163,-15.052C10.22,-10.251 5.447,-5.594 0.644,-0.969C-0.42,0.054 -1.161,-0.732 -1.859,-1.577C-4.665,-4.965 -7.909,-7.756 -12.227,-9.049C-20.872,-11.637 -29.476,-8.083 -33.614,0.035C-38.231,9.091 -38.593,18.472 -34.657,27.823C-29.533,39.996 -15.203,41.796 -6.337,35.091C-4.059,33.367 -2.099,31.222 0,29.277" style="fill:white;fill-rule:nonzero;"/>
                    </g>
                    <g transform="matrix(1,0,0,1,4124.18,-1335.24)">
                        <path d="M0,89.286C3.933,84.781 8.168,79.929 12.558,74.9C11.278,73.471 9.472,71.415 7.622,69.4C5.853,67.473 3.988,65.63 2.273,63.656C1.792,63.101 1.459,62.215 1.455,61.479C1.408,49.9 1.409,38.32 1.47,26.741C1.473,26.029 1.893,25.161 2.399,24.635C5.412,21.51 8.509,18.466 11.571,15.389C12.098,14.86 12.592,14.299 13.243,13.6C8.875,8.998 4.596,4.49 0.334,0L63.75,0C63.769,3.966 64.441,7.614 61.713,10.986C59.622,13.571 58.14,16.668 56.541,19.621C55.892,20.82 55.182,21.248 53.82,21.239C45.136,21.178 36.451,21.212 27.767,21.215C27.088,21.216 26.409,21.215 25.571,21.215L25.571,37.297L53.404,37.297L53.404,56.855L25.475,56.855L25.475,89.286L0,89.286Z" style="fill:white;fill-rule:nonzero;"/>
                    </g>
                    <g transform="matrix(1,0,0,1,4116.1,-1274.57)">
                        <path d="M0,-31.464C-1.368,-32.767 -3.107,-34.756 -5.167,-36.327C-14.913,-43.764 -29.798,-40.756 -34.023,-27.176C-36.741,-18.442 -37.02,-9.718 -32.638,-1.418C-26.796,9.648 -12.282,11.862 -3.213,3.216C-1.756,1.827 -0.439,0.29 1.066,-1.312C2.55,0.26 4.241,1.954 5.792,3.768C6.167,4.208 6.185,5.043 6.188,5.698C6.219,10.865 6.142,16.034 6.244,21.2C6.274,22.726 5.707,23.599 4.488,24.363C-0.04,27.201 -4.959,29.12 -10.191,29.94C-20.466,31.548 -30.278,29.993 -39.343,24.701C-50.362,18.268 -56.604,8.325 -58.986,-3.878C-61.743,-18.004 -59.518,-31.525 -51.497,-43.671C-44.108,-54.861 -33.639,-61.172 -20.128,-62.291C-11.429,-63.012 -3.202,-61.745 4.455,-57.349C5.767,-56.596 6.257,-55.747 6.232,-54.248C6.149,-49.082 6.287,-43.911 6.138,-38.748C6.104,-37.599 5.495,-36.24 4.706,-35.391C3.354,-33.936 1.651,-32.808 0,-31.464" style="fill:white;fill-rule:nonzero;"/>
                    </g>
                    <g transform="matrix(1,0,0,1,4235.53,-1304.96)">
                        <path d="M0,29.277C4.666,33.341 9.463,37.567 14.323,41.718C15.554,42.77 15.535,43.492 14.483,44.728C6.962,53.57 -2.45,58.951 -13.992,60.435C-27.533,62.176 -39.197,58.226 -48.793,48.502C-53.603,43.628 -56.535,37.618 -58.62,31.23C-58.451,31.016 -58.386,30.839 -58.284,30.815C-54.125,29.839 -54.067,29.764 -54.069,25.472C-54.071,19.616 -54.066,13.759 -54.067,7.902C-54.067,3.879 -54.069,3.879 -58.063,3.414L-58.063,-5.242C-57.884,-5.256 -57.704,-5.269 -57.524,-5.282C-57.456,-4.963 -57.387,-4.644 -57.327,-4.369C-54.915,-4.111 -53.479,-5.368 -52.358,-7.393C-49.535,-12.492 -46.751,-17.623 -43.628,-22.536C-42.508,-24.299 -40.647,-25.794 -38.806,-26.86C-30.676,-31.561 -21.906,-32.899 -12.611,-31.619C-4.103,-30.448 3.209,-26.856 9.551,-21.23C11.584,-19.427 13.238,-17.196 15.163,-15.052C10.22,-10.251 5.447,-5.594 0.644,-0.969C-0.42,0.054 -1.161,-0.732 -1.859,-1.577C-4.665,-4.965 -7.909,-7.756 -12.227,-9.049C-20.872,-11.637 -29.476,-8.083 -33.614,0.035C-38.231,9.091 -38.593,18.472 -34.657,27.823C-29.533,39.996 -15.203,41.796 -6.337,35.091C-4.059,33.367 -2.099,31.222 0,29.277" style="fill:white;fill-rule:nonzero;"/>
                    </g>
                    <g transform="matrix(1,0,0,1,4124.18,-1335.24)">
                        <path d="M0,89.286C3.933,84.781 8.168,79.929 12.558,74.9C11.278,73.471 9.472,71.415 7.622,69.4C5.853,67.473 3.988,65.63 2.273,63.656C1.792,63.101 1.459,62.215 1.455,61.479C1.408,49.9 1.409,38.32 1.47,26.741C1.473,26.029 1.893,25.161 2.399,24.635C5.412,21.51 8.509,18.466 11.571,15.389C12.098,14.86 12.592,14.299 13.243,13.6C8.875,8.998 4.596,4.49 0.334,0L63.75,0C63.769,3.966 64.441,7.614 61.713,10.986C59.622,13.571 58.14,16.668 56.541,19.621C55.892,20.82 55.182,21.248 53.82,21.239C45.136,21.178 36.451,21.212 27.767,21.215C27.088,21.216 26.409,21.215 25.571,21.215L25.571,37.297L53.404,37.297L53.404,56.855L25.475,56.855L25.475,89.286L0,89.286Z" style="fill:white;fill-rule:nonzero;"/>
                    </g>
                    <g transform="matrix(1.48884,0,0,1.48884,-2082.79,622.719)">
                        <g transform="matrix(1.46127,0,0,1.46127,2970.93,-2019.1)">
                            <rect x="1032.78" y="504.185" width="1.608" height="1.71" style="fill:white;"/>
                        </g>
                        <g transform="matrix(1.46127,0,0,1.46127,4507.64,-1310.96)">
                            <path d="M0,15.5C1.612,15.5 2.702,14.789 3.519,13.868L2.639,12.862C1.948,13.575 1.151,14.12 0.083,14.12C-1.761,14.12 -3.269,12.464 -3.269,9.887L-3.269,9.782C-3.269,7.246 -1.802,5.528 0.021,5.528C1.151,5.528 1.927,6.115 2.576,6.765L3.478,5.633C2.639,4.796 1.592,4.148 0.041,4.148C-2.682,4.148 -4.816,6.471 -4.816,9.782L-4.816,9.929C-4.816,13.24 -2.745,15.5 0,15.5M-11.982,15.5C-10.368,15.5 -9.3,14.706 -8.649,13.68L-8.649,15.269L-7.165,15.269L-7.165,8.253C-7.165,6.975 -7.541,5.968 -8.211,5.298C-8.922,4.587 -9.949,4.21 -11.27,4.21C-12.611,4.21 -13.68,4.587 -14.705,5.089L-14.225,6.325C-13.471,5.926 -12.527,5.591 -11.438,5.591C-9.677,5.591 -8.649,6.534 -8.649,8.296L-8.649,8.944C-9.468,8.694 -10.306,8.505 -11.458,8.505C-13.869,8.505 -15.479,9.78 -15.479,12.022L-15.479,12.106C-15.479,14.266 -13.806,15.5 -11.982,15.5M-139.436,15.5C-137.801,15.5 -136.67,14.873 -135.687,13.868L-136.544,12.904C-137.298,13.658 -138.178,14.162 -139.372,14.162C-141.092,14.162 -142.579,12.82 -142.747,10.409L-135.415,10.409C-135.394,10.221 -135.394,9.928 -135.394,9.782C-135.394,6.493 -137.025,4.148 -139.771,4.148C-142.328,4.148 -144.273,6.471 -144.273,9.803L-144.273,9.908C-144.273,13.365 -142.098,15.5 -139.436,15.5M-74.306,15.5C-72.67,15.5 -71.539,14.873 -70.557,13.868L-71.413,12.904C-72.167,13.658 -73.048,14.162 -74.242,14.162C-75.961,14.162 -77.449,12.82 -77.616,10.409L-70.284,10.409C-70.264,10.221 -70.264,9.928 -70.264,9.782C-70.264,6.493 -71.895,4.148 -74.641,4.148C-77.197,4.148 -79.143,6.471 -79.143,9.803L-79.143,9.908C-79.143,13.365 -76.967,15.5 -74.306,15.5M-103.319,15.5C-100.512,15.5 -98.461,13.051 -98.461,9.866L-98.461,9.74C-98.461,6.555 -100.49,4.148 -103.299,4.148C-106.107,4.148 -108.157,6.576 -108.157,9.761L-108.157,9.908C-108.157,13.093 -106.128,15.5 -103.319,15.5M14.875,15.5C17.684,15.5 19.733,13.051 19.733,9.866L19.733,9.74C19.733,6.555 17.704,4.148 14.896,4.148C12.088,4.148 10.037,6.576 10.037,9.761L10.037,9.908C10.037,13.093 12.066,15.5 14.875,15.5M-46.904,15.5C-44.096,15.5 -42.045,13.051 -42.045,9.866L-42.045,9.74C-42.045,6.555 -44.074,4.148 -46.883,4.148C-49.691,4.148 -51.742,6.576 -51.742,9.761L-51.742,9.908C-51.742,13.093 -49.712,15.5 -46.904,15.5M-86.707,15.479C-84.989,15.479 -83.898,14.413 -83.165,13.177L-83.165,15.269L-81.659,15.269L-81.659,0.147L-83.165,0.147L-83.165,6.387C-83.878,5.193 -84.968,4.148 -86.707,4.148C-88.929,4.148 -91.063,6.094 -91.063,9.718L-91.063,9.927C-91.063,13.575 -88.929,15.479 -86.707,15.479M-150.372,15.479C-148.361,15.479 -146.958,14.684 -145.722,13.47L-146.664,12.38C-147.712,13.386 -148.78,14.015 -150.289,14.015C-152.991,14.015 -155.065,11.563 -155.065,7.959L-155.065,7.875C-155.065,4.334 -152.991,1.862 -150.289,1.862C-148.802,1.862 -147.691,2.511 -146.77,3.392L-145.806,2.197C-146.958,1.13 -148.257,0.398 -150.268,0.398C-153.934,0.398 -156.696,3.455 -156.696,7.896L-156.696,8.022C-156.696,12.485 -153.997,15.479 -150.372,15.479M-118.551,15.437C-117.923,15.437 -117.398,15.291 -116.917,15.061L-116.917,13.764C-117.356,13.952 -117.775,14.057 -118.195,14.057C-119.138,14.057 -119.766,13.638 -119.766,12.485L-119.766,5.696L-116.917,5.696L-116.917,4.357L-119.766,4.357L-119.766,1.173L-121.271,1.173L-121.271,4.357L-122.592,4.357L-122.592,5.696L-121.271,5.696L-121.271,12.737C-121.271,14.684 -120.101,15.437 -118.551,15.437M-132.961,15.269L-131.455,15.269L-131.455,8.628C-131.455,6.764 -130.281,5.507 -128.688,5.507C-127.096,5.507 -126.174,6.597 -126.174,8.544L-126.174,15.269L-124.668,15.269L-124.668,8.126C-124.668,5.675 -126.007,4.148 -128.228,4.148C-129.862,4.148 -130.848,5.047 -131.455,6.136L-131.455,4.357L-132.961,4.357L-132.961,15.269ZM-32.176,15.269L-30.67,15.269L-30.67,8.628C-30.67,6.785 -29.559,5.507 -28.092,5.507C-26.604,5.507 -25.724,6.575 -25.724,8.523L-25.724,15.269L-24.218,15.269L-24.218,8.607C-24.218,6.638 -23.064,5.507 -21.64,5.507C-20.151,5.507 -19.271,6.554 -19.271,8.544L-19.271,15.269L-17.765,15.269L-17.765,8.147C-17.765,5.612 -19.124,4.148 -21.241,4.148C-22.918,4.148 -23.924,5.068 -24.594,6.136C-25.117,4.942 -26.143,4.148 -27.609,4.148C-29.182,4.148 -30.062,5.068 -30.67,6.094L-30.67,4.357L-32.176,4.357L-32.176,15.269ZM-39.528,15.269L-38.022,15.269L-38.022,10.074C-38.022,7.267 -36.389,5.842 -34.356,5.842L-34.272,5.842L-34.272,4.21C-36.054,4.127 -37.374,5.236 -38.022,6.764L-38.022,4.357L-39.528,4.357L-39.528,15.269ZM-114.484,15.269L-112.979,15.269L-112.979,10.074C-112.979,7.267 -111.345,5.842 -109.313,5.842L-109.229,5.842L-109.229,4.21C-111.01,4.127 -112.329,5.236 -112.979,6.764L-112.979,4.357L-114.484,4.357L-114.484,15.269ZM22.25,15.269L23.756,15.269L23.756,8.628C23.756,6.764 24.93,5.507 26.522,5.507C28.115,5.507 29.037,6.597 29.037,8.544L29.037,15.269L30.543,15.269L30.543,8.126C30.543,5.675 29.205,4.148 26.983,4.148C25.349,4.148 24.363,5.047 23.756,6.136L23.756,4.357L22.25,4.357L22.25,15.269ZM5.889,15.269L7.395,15.269L7.395,4.357L5.889,4.357L5.889,15.269ZM-62.195,15.269L-60.627,15.269L-60.627,8.817L-54.111,8.817L-54.111,7.374L-60.627,7.374L-60.627,2.051L-53.337,2.051L-53.337,0.608L-62.195,0.608L-62.195,15.269ZM-11.646,14.246C-12.946,14.246 -13.974,13.386 -13.974,12.023L-13.974,11.961C-13.974,10.577 -13.009,9.676 -11.27,9.676C-10.2,9.676 -9.32,9.864 -8.629,10.116L-8.629,11.479C-8.629,13.072 -9.97,14.266 -11.646,14.246M-46.883,14.141C-48.748,14.141 -50.194,12.317 -50.194,9.866L-50.194,9.761C-50.194,7.33 -48.832,5.507 -46.904,5.507C-45.039,5.507 -43.572,7.33 -43.572,9.782L-43.572,9.887C-43.572,12.296 -44.955,14.141 -46.883,14.141M14.896,14.141C13.03,14.141 11.585,12.317 11.585,9.866L11.585,9.761C11.585,7.33 12.946,5.507 14.875,5.507C16.74,5.507 18.207,7.33 18.207,9.782L18.207,9.887C18.207,12.296 16.823,14.141 14.896,14.141M-103.299,14.141C-105.164,14.141 -106.61,12.317 -106.61,9.866L-106.61,9.761C-106.61,7.33 -105.247,5.507 -103.319,5.507C-101.454,5.507 -99.987,7.33 -99.987,9.782L-99.987,9.887C-99.987,12.296 -101.37,14.141 -103.299,14.141M-86.393,14.12C-88.091,14.12 -89.516,12.548 -89.516,9.887L-89.516,9.719C-89.516,7.037 -88.132,5.507 -86.393,5.507C-84.674,5.507 -83.103,7.142 -83.103,9.719L-83.103,9.908C-83.103,12.485 -84.674,14.12 -86.393,14.12M-142.747,9.238C-142.601,6.954 -141.385,5.465 -139.771,5.465C-137.989,5.465 -137.004,7.163 -136.899,9.238L-142.747,9.238ZM-77.616,9.238C-77.47,6.954 -76.255,5.465 -74.641,5.465C-72.859,5.465 -71.874,7.163 -71.769,9.238L-77.616,9.238ZM14.246,2.933L15.398,2.933L17.6,0.733L16.048,0L14.246,2.933ZM5.805,2.113L7.479,2.113L7.479,0.335L5.805,0.335L5.805,2.113Z" style="fill:white;fill-rule:nonzero;"/>
                        </g>
                        <g transform="matrix(1.46127,0,0,1.46127,4448.9,-1277.92)">
                            <path d="M0,11.121L1.507,11.121L1.507,4.48C1.507,2.616 2.68,1.359 4.272,1.359C5.866,1.359 6.788,2.448 6.788,4.396L6.788,11.121L8.294,11.121L8.294,3.977C8.294,1.527 6.955,0 4.734,0C3.1,0 2.114,0.899 1.507,1.987L1.507,0.209L0,0.209L0,11.121Z" style="fill:white;fill-rule:nonzero;"/>
                        </g>
                        <g transform="matrix(1.46127,0,0,1.46127,4381.62,-1277.92)">
                            <path d="M0,11.121L1.505,11.121L1.505,4.48C1.505,2.616 2.68,1.359 4.272,1.359C5.864,1.359 6.787,2.448 6.787,4.396L6.787,11.121L8.293,11.121L8.293,3.977C8.293,1.527 6.954,0 4.733,0C3.099,0 2.113,0.899 1.505,1.987L1.505,0.209L0,0.209L0,11.121Z" style="fill:white;fill-rule:nonzero;"/>
                        </g>
                        <g transform="matrix(1.46127,0,0,1.46127,4423.13,-1277.95)">
                            <path d="M0,11.142L1.506,11.142L1.506,5.947C1.506,3.14 3.14,1.715 5.172,1.715L5.256,1.715L5.256,0.084C3.475,0 2.155,1.108 1.506,2.637L1.506,0.23L0,0.23L0,11.142Z" style="fill:white;fill-rule:nonzero;"/>
                        </g>
                        <g transform="matrix(1.46127,0,0,1.46127,4312.74,-1277.95)">
                            <path d="M0,11.142L1.506,11.142L1.506,5.947C1.506,3.14 3.14,1.715 5.172,1.715L5.256,1.715L5.256,0.084C3.475,0 2.155,1.108 1.506,2.637L1.506,0.23L0,0.23L0,11.142Z" style="fill:white;fill-rule:nonzero;"/>
                        </g>
                        <g transform="matrix(1.46127,0,0,1.46127,4398.76,-1283.89)">
                            <path d="M0,15.207L1.526,15.207L1.526,5.613L4.354,5.613L4.354,4.295L1.505,4.295L1.505,3.379C1.505,2.005 2.071,1.339 3.16,1.339C3.579,1.339 3.956,1.422 4.396,1.547L4.396,0.21C3.978,0.084 3.537,0 2.951,0C2.05,0 1.338,0.272 0.836,0.774C0.313,1.318 0,2.171 0,3.296L0,4.295L-1.341,4.295L-1.341,5.613L0,5.613L0,15.207Z" style="fill:white;fill-rule:nonzero;"/>
                        </g>
                        <g transform="matrix(1.46127,0,0,1.46127,2897.27,-1992.2)">
                            <rect x="1083.21" y="489.017" width="1.506" height="10.912" style="fill:white;"/>
                        </g>
                        <g transform="matrix(1.46127,0,0,1.46127,4504.58,-1282.27)">
                            <path d="M0,14.264C0.628,14.264 1.152,14.117 1.634,13.888L1.634,12.59C1.193,12.779 0.774,12.884 0.356,12.884C-0.587,12.884 -1.216,12.465 -1.216,11.312L-1.216,4.522L1.634,4.522L1.634,3.184L-1.216,3.184L-1.216,0L-2.721,0L-2.721,3.184L-4.041,3.184L-4.041,4.522L-2.721,4.522L-2.721,11.563C-2.721,13.511 -1.55,14.264 0,14.264" style="fill:white;fill-rule:nonzero;"/>
                        </g>
                        <g transform="matrix(1.46127,0,0,1.46127,4491.36,-1277.86)">
                            <path d="M0,11.269C1.971,11.269 3.539,10.077 3.539,8.128L3.539,8.086C3.539,6.431 2.284,5.676 0.482,4.88C-1.006,4.251 -1.95,3.791 -1.95,2.869L-1.95,2.827C-1.95,1.967 -1.216,1.297 -0.062,1.297C0.901,1.297 1.845,1.716 2.682,2.324L3.413,1.171C2.493,0.481 1.216,0 -0.021,0C-1.971,0 -3.413,1.192 -3.413,2.974L-3.413,3.015C-3.413,4.712 -2.033,5.404 -0.294,6.159C1.174,6.766 2.075,7.269 2.075,8.233L2.075,8.254C2.075,9.281 1.236,9.952 0.042,9.952C-1.048,9.952 -2.117,9.49 -3.142,8.631L-3.938,9.742C-2.786,10.746 -1.342,11.269 0,11.269" style="fill:white;fill-rule:nonzero;"/>
                        </g>
                        <g transform="matrix(1.46127,0,0,1.46127,4529.41,-1277.86)">
                            <path d="M0,11.269C1.971,11.269 3.539,10.077 3.539,8.128L3.539,8.086C3.539,6.431 2.285,5.676 0.482,4.88C-1.006,4.251 -1.949,3.791 -1.949,2.869L-1.949,2.827C-1.949,1.967 -1.216,1.297 -0.062,1.297C0.902,1.297 1.845,1.716 2.682,2.324L3.414,1.171C2.494,0.481 1.216,0 -0.021,0C-1.97,0 -3.413,1.192 -3.413,2.974L-3.413,3.015C-3.413,4.712 -2.033,5.404 -0.293,6.159C1.175,6.766 2.075,7.269 2.075,8.233L2.075,8.254C2.075,9.281 1.237,9.952 0.043,9.952C-1.048,9.952 -2.116,9.49 -3.141,8.631L-3.937,9.742C-2.786,10.746 -1.342,11.269 0,11.269" style="fill:white;fill-rule:nonzero;"/>
                        </g>
                        <g transform="matrix(1.46127,0,0,1.46127,4354.86,-1283.4)">
                            <path d="M0,15.081C2.011,15.081 3.415,14.287 4.65,13.073L3.708,11.983C2.66,12.989 1.592,13.617 0.084,13.617C-2.618,13.617 -4.692,11.165 -4.692,7.562L-4.692,7.478C-4.692,3.936 -2.618,1.464 0.084,1.464C1.571,1.464 2.682,2.114 3.604,2.994L4.567,1.799C3.415,0.732 2.116,0 0.104,0C-3.562,0 -6.324,3.057 -6.324,7.498L-6.324,7.624C-6.324,12.088 -3.624,15.081 0,15.081" style="fill:white;fill-rule:nonzero;"/>
                        </g>
                        <g transform="matrix(1.46127,0,0,1.46127,4471.52,-1277.92)">
                            <path d="M0,11.352C1.613,11.352 2.702,10.641 3.52,9.721L2.64,8.715C1.948,9.427 1.152,9.972 0.084,9.972C-1.76,9.972 -3.269,8.316 -3.269,5.739L-3.269,5.634C-3.269,3.099 -1.802,1.38 0.021,1.38C1.152,1.38 1.927,1.967 2.576,2.617L3.478,1.485C2.64,0.648 1.592,0 0.042,0C-2.682,0 -4.815,2.324 -4.815,5.634L-4.815,5.781C-4.815,9.092 -2.744,11.352 0,11.352" style="fill:white;fill-rule:nonzero;"/>
                        </g>
                        <g transform="matrix(1.46127,0,0,1.46127,4331.78,-1271.95)">
                            <path d="M0,3.243C0,4.839 -1.345,6.034 -3.021,6.014C-4.315,6.014 -5.35,5.15 -5.35,3.795L-5.35,3.725C-5.35,2.34 -4.386,1.446 -2.64,1.446C-1.575,1.446 -0.692,1.627 0,1.878L0,3.243ZM0.422,-2.93C-0.291,-3.643 -1.324,-4.025 -2.64,-4.025C-3.984,-4.025 -5.049,-3.643 -6.072,-3.141L-5.601,-1.906C-4.838,-2.308 -3.895,-2.639 -2.811,-2.639C-1.054,-2.639 -0.02,-1.695 -0.02,0.061L-0.02,0.713C-0.843,0.462 -1.676,0.272 -2.83,0.272C-5.239,0.272 -6.855,1.547 -6.855,3.785L-6.855,3.875C-6.855,6.034 -5.179,7.268 -3.353,7.268C-1.736,7.268 -0.672,6.475 -0.02,5.451L-0.02,7.037L1.466,7.037L1.466,0.021C1.466,-1.254 1.085,-2.268 0.422,-2.93" style="fill:white;fill-rule:nonzero;"/>
                        </g>
                        <g transform="matrix(1.46127,0,0,1.46127,4408.83,-1268.77)">
                            <path d="M0,-1.174C0.141,-3.463 1.355,-4.948 2.972,-4.948C4.759,-4.948 5.742,-3.252 5.843,-1.174L0,-1.174ZM7.348,-0.632C7.348,-3.924 5.722,-6.263 2.972,-6.263C0.412,-6.263 -1.525,-3.945 -1.525,-0.612L-1.525,-0.502C-1.525,2.951 0.643,5.089 3.313,5.089C4.939,5.089 6.073,4.457 7.057,3.453L6.204,2.49C5.441,3.243 4.567,3.754 3.373,3.754C1.656,3.754 0.161,2.409 0,0L7.328,0C7.348,-0.191 7.348,-0.482 7.348,-0.632" style="fill:white;fill-rule:nonzero;"/>
                        </g>
                        <g transform="matrix(1.46127,0,0,1.46127,4519.49,-1271.95)">
                            <path d="M0,3.243C0,4.839 -1.335,6.034 -3.012,6.014C-4.316,6.014 -5.34,5.15 -5.34,3.795L-5.34,3.725C-5.34,2.34 -4.377,1.446 -2.64,1.446C-1.566,1.446 -0.683,1.627 0,1.878L0,3.243ZM0.422,-2.93C-0.291,-3.643 -1.315,-4.025 -2.64,-4.025C-3.975,-4.025 -5.049,-3.643 -6.073,-3.141L-5.591,-1.906C-4.838,-2.308 -3.895,-2.639 -2.801,-2.639C-1.044,-2.639 -0.021,-1.695 -0.021,0.061L-0.021,0.713C-0.833,0.462 -1.677,0.272 -2.82,0.272C-5.24,0.272 -6.846,1.547 -6.846,3.785L-6.846,3.875C-6.846,6.034 -5.17,7.268 -3.353,7.268C-1.736,7.268 -0.662,6.475 -0.021,5.451L-0.021,7.037L1.466,7.037L1.466,0.021C1.466,-1.254 1.094,-2.268 0.422,-2.93" style="fill:white;fill-rule:nonzero;"/>
                        </g>
                        <g transform="matrix(1.46127,0,0,1.46127,4306.3,-1271.95)">
                            <path d="M0,3.243C0,4.839 -1.335,6.034 -3.011,6.014C-4.315,6.014 -5.34,5.15 -5.34,3.795L-5.34,3.725C-5.34,2.34 -4.376,1.446 -2.64,1.446C-1.565,1.446 -0.683,1.627 0,1.878L0,3.243ZM0.422,-2.93C-0.291,-3.643 -1.314,-4.025 -2.64,-4.025C-3.975,-4.025 -5.049,-3.643 -6.072,-3.141L-5.591,-1.906C-4.838,-2.308 -3.895,-2.639 -2.8,-2.639C-1.044,-2.639 -0.02,-1.695 -0.02,0.061L-0.02,0.713C-0.833,0.462 -1.676,0.272 -2.82,0.272C-5.239,0.272 -6.846,1.547 -6.846,3.785L-6.846,3.875C-6.846,6.034 -5.169,7.268 -3.353,7.268C-1.736,7.268 -0.662,6.475 -0.02,5.451L-0.02,7.037L1.466,7.037L1.466,0.021C1.466,-1.254 1.095,-2.268 0.422,-2.93" style="fill:white;fill-rule:nonzero;"/>
                        </g>
                        <g transform="matrix(1.46127,0,0,1.46127,4375.71,-1269.72)">
                            <path d="M0,0.131C0,2.54 -1.385,4.377 -3.313,4.377C-5.18,4.377 -6.625,2.56 -6.625,0.111L-6.625,0.001C-6.625,-2.429 -5.26,-4.256 -3.332,-4.256C-1.466,-4.256 0,-2.429 0,0.021L0,0.131ZM-3.313,-5.611C-6.123,-5.611 -8.171,-3.182 -8.171,0.001L-8.171,0.151C-8.171,3.333 -6.143,5.742 -3.332,5.742C-0.521,5.742 1.526,3.293 1.526,0.111L1.526,-0.019C1.526,-3.202 -0.502,-5.611 -3.313,-5.611" style="fill:white;fill-rule:nonzero;"/>
                        </g>
                        <g transform="matrix(1.46127,0,0,1.46127,4434.61,-1268.77)">
                            <path d="M0,-1.174C0.15,-3.463 1.365,-4.948 2.972,-4.948C4.758,-4.948 5.742,-3.252 5.842,-1.174L0,-1.174ZM7.348,-0.632C7.348,-3.924 5.722,-6.263 2.972,-6.263C0.422,-6.263 -1.525,-3.945 -1.525,-0.612L-1.525,-0.502C-1.525,2.951 0.652,5.089 3.313,5.089C4.949,5.089 6.073,4.457 7.057,3.453L6.203,2.49C5.45,3.243 4.567,3.754 3.373,3.754C1.656,3.754 0.171,2.409 0,0L7.328,0C7.348,-0.191 7.348,-0.482 7.348,-0.632" style="fill:white;fill-rule:nonzero;"/>
                        </g>
                        <g transform="matrix(1.46127,0,0,1.46127,4291.34,-1265.5)">
                            <path d="M0,-2.74C0,-0.06 -1.385,1.466 -3.102,1.466C-4.818,1.466 -6.414,-0.16 -6.414,-2.72L-6.414,-2.931C-6.414,-5.49 -4.818,-7.147 -3.102,-7.147C-1.425,-7.147 0,-5.571 0,-2.91L0,-2.74ZM-2.811,-8.502C-4.527,-8.502 -5.621,-7.438 -6.354,-6.203L-6.354,-8.291L-7.859,-8.291L-7.859,5.762L-6.354,5.762L-6.354,0.593C-5.642,1.787 -4.547,2.831 -2.811,2.831C-0.592,2.831 1.546,0.884 1.546,-2.74L1.546,-2.951C1.546,-6.574 -0.592,-8.502 -2.811,-8.502" style="fill:white;fill-rule:nonzero;"/>
                        </g>
                    </g>
                </g>
            </g>
            <rect x="1537.04" y="3406.64" width="2.627" height="91.505" style="fill:white;"/>
        </g>
    </g>
</svg>
